<?xml version="1.0" encoding="utf-8"?>
<!-- Generator: Adobe Illustrator 19.2.1, SVG Export Plug-In . SVG Version: 6.00 Build 0)  -->
<svg version="1.1" id="Layer_1" xmlns="http://www.w3.org/2000/svg" xmlns:xlink="http://www.w3.org/1999/xlink" x="0px" y="0px"
	 viewBox="0 0 465 486.7" style="enable-background:new 0 0 465 486.7;" xml:space="preserve">
<style type="text/css">
	.st0{clip-path:url(#SVGID_2_);fill:url(#SVGID_3_);}
	.st1{opacity:0.61;clip-path:url(#SVGID_2_);fill:#dfdfdf;}
</style>
<g>
	<defs>
		<rect id="SVGID_1_" x="-0.2" width="465" height="486.7"/>
	</defs>
	<clipPath id="SVGID_2_">
		<use xlink:href="#SVGID_1_"  style="overflow:visible;"/>
	</clipPath>
	
		<radialGradient id="SVGID_3_" cx="275.1612" cy="243.3414" r="366.7209" gradientTransform="matrix(0.9554 0 0 1 -1.105047e-02 0)" gradientUnits="userSpaceOnUse">
		<stop  offset="0" style="stop-color:#FFFFFF"/>
		<stop  offset="0.3901" style="stop-color:#FFFFFF"/>
		<stop  offset="0.6849" style="stop-color:#FFFFFF"/>
		<stop  offset="0.9477" style="stop-color:#FFFFFF"/>
		<stop  offset="1" style="stop-color:#FFFFFF"/>
	</radialGradient>
	<rect x="0" class="st0" width="465" height="486.7"/>
	<path class="st1" d="M19,486.7h2.2v-19.8h33.2v19.8h2.2v-19.8h33.2v19.8H92v-19.8h33.2v19.8h2.2v-19.8h33.2v19.8h2.2v-19.8h33.2
		v19.8h2.2v-19.8h33.2v19.8h2.2v-19.8h33.2v19.8h2.2v-19.8h33.2v19.8h2.2v-19.8h33.2v19.8h2.2v-19.8h33.2v19.8h2.2v-19.8h33.2v19.8
		h2.2v-19.8H444v19.8h2.2v-19.8H465v-2.3h-18.8v-34.8H465v-2.3h-18.8v-34.8H465v-2.3h-18.8v-34.8H465v-2.3h-18.8v-34.8H465v-2.3
		h-18.8v-34.8H465v-2.3h-18.8v-34.8H465v-2.3h-18.8v-34.8H465v-2.3h-18.8v-34.8H465v-2.3h-18.8v-34.8H465V131h-18.8V96.2H465v-2.3
		h-18.8V59.1H465v-2.3h-18.8V22.1H465v-2.3h-18.8V0H444v19.8h-33.2V0h-2.2v19.8h-33.2V0h-2.2v19.8h-33.2V0h-2.2v19.8h-33.2V0h-2.2
		v19.8h-33.2V0h-2.2v19.8h-33.2V0h-2.2v19.8h-33.2V0h-2.2v19.8h-33.2V0h-2.2v19.8h-33.2V0h-2.2v19.8H92V0h-2.2v19.8H56.6V0h-2.2
		v19.8H21.2V0H19v19.8H0v2.3h19v34.8H0v2.3h19v34.8H0v2.3h19V131H0v2.3h19v34.8H0v2.3h19v34.8H0v2.3h19v34.8H0v2.3h19v34.8H0v2.3h19
		v34.8H0v2.3h19v34.8H0v2.3h19v34.8H0v2.3h19v34.8H0v2.3h19v34.8H0v2.3h19V486.7z M410.7,22.1H444v34.8h-33.2V22.1z M410.7,59.1H444
		v34.8h-33.2V59.1z M410.7,96.2H444V131h-33.2V96.2z M410.7,133.3H444v34.8h-33.2V133.3z M410.7,170.3H444v34.8h-33.2V170.3z
		 M410.7,207.4H444v34.8h-33.2V207.4z M410.7,244.5H444v34.8h-33.2V244.5z M410.7,281.5H444v34.8h-33.2V281.5z M410.7,318.6H444
		v34.8h-33.2V318.6z M410.7,355.7H444v34.8h-33.2V355.7z M410.7,392.7H444v34.8h-33.2V392.7z M410.7,429.8H444v34.8h-33.2V429.8z
		 M375.3,22.1h33.2v34.8h-33.2V22.1z M375.3,59.1h33.2v34.8h-33.2V59.1z M375.3,96.2h33.2V131h-33.2V96.2z M375.3,133.3h33.2v34.8
		h-33.2V133.3z M375.3,170.3h33.2v34.8h-33.2V170.3z M375.3,207.4h33.2v34.8h-33.2V207.4z M375.3,244.5h33.2v34.8h-33.2V244.5z
		 M375.3,281.5h33.2v34.8h-33.2V281.5z M375.3,318.6h33.2v34.8h-33.2V318.6z M375.3,355.7h33.2v34.8h-33.2V355.7z M375.3,392.7h33.2
		v34.8h-33.2V392.7z M375.3,429.8h33.2v34.8h-33.2V429.8z M339.9,22.1h33.2v34.8h-33.2V22.1z M339.9,59.1h33.2v34.8h-33.2V59.1z
		 M339.9,96.2h33.2V131h-33.2V96.2z M339.9,133.3h33.2v34.8h-33.2V133.3z M339.9,170.3h33.2v34.8h-33.2V170.3z M339.9,207.4h33.2
		v34.8h-33.2V207.4z M339.9,244.5h33.2v34.8h-33.2V244.5z M339.9,281.5h33.2v34.8h-33.2V281.5z M339.9,318.6h33.2v34.8h-33.2V318.6z
		 M339.9,355.7h33.2v34.8h-33.2V355.7z M339.9,392.7h33.2v34.8h-33.2V392.7z M339.9,429.8h33.2v34.8h-33.2V429.8z M304.5,22.1h33.2
		v34.8h-33.2V22.1z M304.5,59.1h33.2v34.8h-33.2V59.1z M304.5,96.2h33.2V131h-33.2V96.2z M304.5,133.3h33.2v34.8h-33.2V133.3z
		 M304.5,170.3h33.2v34.8h-33.2V170.3z M304.5,207.4h33.2v34.8h-33.2V207.4z M304.5,244.5h33.2v34.8h-33.2V244.5z M304.5,281.5h33.2
		v34.8h-33.2V281.5z M304.5,318.6h33.2v34.8h-33.2V318.6z M304.5,355.7h33.2v34.8h-33.2V355.7z M304.5,392.7h33.2v34.8h-33.2V392.7z
		 M304.5,429.8h33.2v34.8h-33.2V429.8z M269.1,22.1h33.2v34.8h-33.2V22.1z M269.1,59.1h33.2v34.8h-33.2V59.1z M269.1,96.2h33.2V131
		h-33.2V96.2z M269.1,133.3h33.2v34.8h-33.2V133.3z M269.1,170.3h33.2v34.8h-33.2V170.3z M269.1,207.4h33.2v34.8h-33.2V207.4z
		 M269.1,244.5h33.2v34.8h-33.2V244.5z M269.1,281.5h33.2v34.8h-33.2V281.5z M269.1,318.6h33.2v34.8h-33.2V318.6z M269.1,355.7h33.2
		v34.8h-33.2V355.7z M269.1,392.7h33.2v34.8h-33.2V392.7z M269.1,429.8h33.2v34.8h-33.2V429.8z M233.7,22.1h33.2v34.8h-33.2V22.1z
		 M233.7,59.1h33.2v34.8h-33.2V59.1z M233.7,96.2h33.2V131h-33.2V96.2z M233.7,133.3h33.2v34.8h-33.2V133.3z M233.7,170.3h33.2v34.8
		h-33.2V170.3z M233.7,207.4h33.2v34.8h-33.2V207.4z M233.7,244.5h33.2v34.8h-33.2V244.5z M233.7,281.5h33.2v34.8h-33.2V281.5z
		 M233.7,318.6h33.2v34.8h-33.2V318.6z M233.7,355.7h33.2v34.8h-33.2V355.7z M233.7,392.7h33.2v34.8h-33.2V392.7z M233.7,429.8h33.2
		v34.8h-33.2V429.8z M198.2,22.1h33.2v34.8h-33.2V22.1z M198.2,59.1h33.2v34.8h-33.2V59.1z M198.2,96.2h33.2V131h-33.2V96.2z
		 M198.2,133.3h33.2v34.8h-33.2V133.3z M198.2,170.3h33.2v34.8h-33.2V170.3z M198.2,207.4h33.2v34.8h-33.2V207.4z M198.2,244.5h33.2
		v34.8h-33.2V244.5z M198.2,281.5h33.2v34.8h-33.2V281.5z M198.2,318.6h33.2v34.8h-33.2V318.6z M198.2,355.7h33.2v34.8h-33.2V355.7z
		 M198.2,392.7h33.2v34.8h-33.2V392.7z M198.2,429.8h33.2v34.8h-33.2V429.8z M162.8,22.1h33.2v34.8h-33.2V22.1z M162.8,59.1h33.2
		v34.8h-33.2V59.1z M162.8,96.2h33.2V131h-33.2V96.2z M162.8,133.3h33.2v34.8h-33.2V133.3z M162.8,170.3h33.2v34.8h-33.2V170.3z
		 M162.8,207.4h33.2v34.8h-33.2V207.4z M162.8,244.5h33.2v34.8h-33.2V244.5z M162.8,281.5h33.2v34.8h-33.2V281.5z M162.8,318.6h33.2
		v34.8h-33.2V318.6z M162.8,355.7h33.2v34.8h-33.2V355.7z M162.8,392.7h33.2v34.8h-33.2V392.7z M162.8,429.8h33.2v34.8h-33.2V429.8z
		 M127.4,22.1h33.2v34.8h-33.2V22.1z M127.4,59.1h33.2v34.8h-33.2V59.1z M127.4,96.2h33.2V131h-33.2V96.2z M127.4,133.3h33.2v34.8
		h-33.2V133.3z M127.4,170.3h33.2v34.8h-33.2V170.3z M127.4,207.4h33.2v34.8h-33.2V207.4z M127.4,244.5h33.2v34.8h-33.2V244.5z
		 M127.4,281.5h33.2v34.8h-33.2V281.5z M127.4,318.6h33.2v34.8h-33.2V318.6z M127.4,355.7h33.2v34.8h-33.2V355.7z M127.4,392.7h33.2
		v34.8h-33.2V392.7z M127.4,429.8h33.2v34.8h-33.2V429.8z M92,22.1h33.2v34.8H92V22.1z M92,59.1h33.2v34.8H92V59.1z M92,96.2h33.2
		V131H92V96.2z M92,133.3h33.2v34.8H92V133.3z M92,170.3h33.2v34.8H92V170.3z M92,207.4h33.2v34.8H92V207.4z M92,244.5h33.2v34.8H92
		V244.5z M92,281.5h33.2v34.8H92V281.5z M92,318.6h33.2v34.8H92V318.6z M92,355.7h33.2v34.8H92V355.7z M92,392.7h33.2v34.8H92V392.7
		z M92,429.8h33.2v34.8H92V429.8z M56.6,22.1h33.2v34.8H56.6V22.1z M56.6,59.1h33.2v34.8H56.6V59.1z M56.6,96.2h33.2V131H56.6V96.2z
		 M56.6,133.3h33.2v34.8H56.6V133.3z M56.6,170.3h33.2v34.8H56.6V170.3z M56.6,207.4h33.2v34.8H56.6V207.4z M56.6,244.5h33.2v34.8
		H56.6V244.5z M56.6,281.5h33.2v34.8H56.6V281.5z M56.6,318.6h33.2v34.8H56.6V318.6z M56.6,355.7h33.2v34.8H56.6V355.7z M56.6,392.7
		h33.2v34.8H56.6V392.7z M56.6,429.8h33.2v34.8H56.6V429.8z M21.2,22.1h33.2v34.8H21.2V22.1z M21.2,59.1h33.2v34.8H21.2V59.1z
		 M21.2,96.2h33.2V131H21.2V96.2z M21.2,133.3h33.2v34.8H21.2V133.3z M21.2,170.3h33.2v34.8H21.2V170.3z M21.2,207.4h33.2v34.8H21.2
		V207.4z M21.2,244.5h33.2v34.8H21.2V244.5z M21.2,281.5h33.2v34.8H21.2V281.5z M21.2,318.6h33.2v34.8H21.2V318.6z M21.2,355.7h33.2
		v34.8H21.2V355.7z M21.2,392.7h33.2v34.8H21.2V392.7z M21.2,429.8h33.2v34.8H21.2V429.8z"/>
</g>
</svg>
